<svg xmlns="http://www.w3.org/2000/svg" width="95.811" height="209.852" viewBox="0 0 95.811 209.852"><path fill="#DBBE93" d="M40.724 39.997c-.395-4.6-2.94-7.356-5.815-8.257 4.33 1.488 3.59 13.643-1.598 19.89-4.497 5.417-7.832 6.61-8.53-.166-1.065 5.577-2.095 10.337.65 15.944 0 0 .933 12.193-1.996 19.942-2.928 7.75 19.273 5.346 19.273 5.346l-1.986-52.7z"/><path fill="#EDD1A4" d="M34.104 52.95c5.187-6.248 5.136-19.723.806-21.21-4.262-1.336-9.245 1.41-8.987 8.302.163 4.356-.495 8.04-1.14 11.423.697 6.774 4.823 6.9 9.32 1.484M93.86 124.962c-2.753-15.64-6.83-13.25-8.937-25.138-2.227-12.553-3.37-25.39-5.428-35.925-.656-3.36-2.3-5.846-4.33-7.29-5.768-3.7-13.618 7.94-11.118 24.653l-21.705 47.215-11.097 63.518C52.21 216.492 72.62 210.42 79.44 196.04v-.003c1.787-4.23 3.22-8.236 5.27-10.654 0 0 16.672-17.696 9.15-60.42"/><path fill="#DBBE93" d="M60.107 208.603c-28.61-13.58-12.07-37.824.994-42.57 16.645-6.045 17.514-10.283 17.514-10.283-9.57-.105-15.064-18.787-11.373-29.027 5.025-16.468-1.037-32.417 3.203-31.13 5.025 1.522 9.58-1.797 9.58-1.797s-8.23.34-9.904-10.847c-2.5-16.714-.722-30.037 5.046-26.338-4.817-3.43-11.814-.95-13.004 9.917l-21.9 10.94-10.82 5.406s-14.042 64.77-16.75 74.526c-2.707 9.758-1.587 14.607 3.92 18.6 10.69 7.75 11.703 40.614 43.495 32.6"/><path fill="#EDD1A4" d="M67.242 126.723c.78-2.163 1.077-3.51 1.068-4.294-.283 1.42-.63 2.853-1.068 4.293"/><path fill="#F4F4F4" d="M50.146 2.935C45.934-1.52 38.94-1.557 39.214 7.427c.275 8.983 3.19 142.8 4.38 151.605s5.44 7.804 17.29.646c7.47-4.512 6.906-6.663 6.105-22.002-.642-12.264-3.21-105.014-3.776-112.954-.564-7.94-1.002-9.246-4.88-13.115-4.016-4.008-8.188-8.672-8.188-8.672"/><path fill="#4F634E" d="M48.888 13.396l4.094 131.126 12.045-6.007-3.77-115.462z"/><path fill="#C4C4C4" d="M46.44 159.56c-1.188-8.805-4.104-142.622-4.38-151.605C41.906 2.893 44.06.697 46.72.538 42.957-1 39.006.628 39.213 7.425c.275 8.984 3.19 142.8 4.38 151.605.643 4.748 2.178 6.64 5.31 6.258-1.295-.867-2.057-2.727-2.463-5.728"/><path fill="#EDD1A4" d="M4.47 119.707S1.645 109.323.625 99.44s1.608-14.212 14.708-18.88c13.1-4.67 17.89-7.942 30.598-4.614 12.092 3.17 21.94 4.142 20.726 13.663-1.215 9.522-15.026 11.53-31.097 8.755 0 0-4.43 4.74-11.574 6.648l-10.533 14.59-8.982.104z"/><path fill="#DBBE93" d="M23.984 105.013c7.145-1.91 11.352-5.802 11.352-5.802 16.07 2.776 30.105-.08 31.32-9.6.08-.626.112-1.218.106-1.783-1.07 10.553-19.472 9.21-30.85.994 0 0-7.286 5.07-19.494 8.396-6.418 1.748-5.12 10.84-3.466 22.394l.5-.005 10.532-14.592z"/><path fill="#FFEFD7" d="M67.16 85.15c-.033-.285-.077-.543-.13-.793-.013-.062-.027-.122-.042-.182-.048-.203-.104-.396-.17-.576-.014-.037-.024-.076-.04-.11-.082-.214-.18-.412-.292-.594l-.042-.06c-.104-.16-.223-.31-.353-.445l-.074-.078c-.306-.302-.684-.55-1.144-.752-.026-.013-.055-.023-.08-.034-.23-.097-.476-.184-.747-.262l-.02-.007c-1.316-.375-3.133-.55-5.642-.675-4.308-.215-5.602-1.003-5.602-1.003S49.253 90.47 57.418 91.49c.013 0 .023.004.038.006 6.162.742 8.764-1.167 9.512-3.692.25-.842.292-1.752.192-2.657"/><path fill="#EDD1A4" d="M13.054 161.868s-6.05-.64-7.32-14.138c-1.27-13.497-1.675-18.28-2.06-26.86-.388-8.584.354-14.82 13.84-16.224 14.96-1.558 20.85-1.95 28.36-2.165 10.46-.296 9.13 2.272 16.726 6.11 9.102 4.6 13.48 9.708 7.268 16.2-6.21 6.493-20.3.854-26.85-2.347 0 0-12.54 4.497-19.043 4.25 0 0 1.323 5.382 1.283 11.76-.04 6.382 5.72 26.14-12.204 23.415"/><path fill="#DBBE93" d="M25.257 138.455c.04-6.38-1.283-11.76-1.283-11.76 6.504.245 19.042-4.25 19.042-4.25 6.55 3.2 20.64 8.838 26.85 2.345 1.714-1.79 2.497-3.49 2.574-5.084-2.652.15-4.222 2.546-4.222 2.546s-5.386 6.382-25.797-5.767c0 0-10.413 2.856-19.215 3.49-10.148.73-7.8 5.36-7.226 14.513.376 6.028 2.347 19.025 3.65 27.197 9.736-2.745 5.592-17.81 5.627-23.23"/><path fill="#FFEFD7" d="M71.295 114.032s-.35-.11-.93-.305c-1.97-.67-6.74-2.412-10.74-4.857 0 0 .727 3.77-2.256 8.91 0 0 .812 1.95 3.32 3.69.25.17.518.34.8.507.063.037.128.072.19.108.23.128.47.255.724.378.094.045.19.093.287.138.248.115.507.22.774.325.106.042.208.085.316.125.377.137.77.267 1.188.384 5.942 1.646 10.94-4.837 6.327-9.402"/><path fill="#EDD1A4" d="M19.776 175.67S9.47 172.29 13 157.7c3.527-14.588 1.97-23.32 15.273-26.377 13.3-3.055 16.155-3.992 26.273-1.186 7.187 1.993 7.425 7.14 13.53 10.455 5.26 2.856.5 13.63-9.858 10.757-10.36-2.875-11.8-4.7-11.8-4.7s-4.213 3.5-12.617 4.8c0 0-1.9 27.58-14.024 24.217"/><path fill="#FFEFD7" d="M71.982 145.22l-6.566-1.114"/><path fill="#DBBE93" d="M33.8 151.453c8.405-1.3 12.62-4.802 12.62-4.802s1.438 1.827 11.798 4.702c7.118 1.974 11.134-1.874 11.56-5.828l-3.596 2.134s-5.306 4.626-20.16-5.657c0 0-7.082 5.43-16.236 5.226 0 0-3.34 32.244-14.695 24.96 2.13 2.644 4.686 3.483 4.686 3.483C31.9 179.03 33.8 151.452 33.8 151.452"/><path fill="#FFEFD7" d="M68.225 140.595c-.122-.05-.233-.11-.366-.146-2.752-.764-4.482-1.746-5.355-2.335-.25-.137-.467-.263-.658-.383.162.686.855 4.22-1.327 7.037 0 0 .764 1.298 2.352 2.408.984.688 2.282 1.304 3.917 1.492 4.136.478 5.164-6.573 1.435-8.075"/><path fill="#DBBE93" d="M22.568 133.446c-5.75 3.005-4.588 14.204 9.632 13.705l-4.1 22.05-3.604 6.914-6.124-.836s-8.164-1.334-6.866-12.38 1.953-27.634 10.77-30.552"/><path fill="#DBBE93" d="M23.206 119.975c-8.55 1.52-21.345-.992-17.687-10.097 0 0-3.4 3.664-2.253 13.386 1.146 9.723-.5 34.54 8.68 39.162 9.182 4.623 8.64-1.84 8.64-1.84l-.92-18.85-2.48-6.31 6.962-11.997-.944-3.455zM.673 92.848c-2.065 9.493 7.828 11.366 13.47 5.54 0 0 6.036 4.84.4 6.686-5.638 1.847-10.38 4.17-10.828 11.18 0 0-5.61-14.4-3.042-23.406"/><path fill="none" d="M-451.67-242.636h872.955v792H-451.67z"/></svg>