<?xml version="1.0" encoding="utf-8"?>
<!-- Generator: Adobe Illustrator 18.1.0, SVG Export Plug-In . SVG Version: 6.00 Build 0)  -->
<svg version="1.1" id="Layer_1" xmlns="http://www.w3.org/2000/svg" xmlns:xlink="http://www.w3.org/1999/xlink" x="0px" y="0px" fill="#ffffff" viewBox="0 0 74 74" enable-background="new 0 0 74 74" xml:space="preserve">
<path d="M59.8,26.5c-0.1-0.3-0.2-0.7-0.4-1l0,0l0,0c0,0,0,0.1-0.1-0.1l0,0l0-0.1l-0.1-0.2l0-0.1l-0.1-0.2L59,24.5
	c-0.7-1.5-1.7-2.7-2.8-3.7c-1.1-1-2.2-1.8-3.3-2.5c-1.1-0.7-2.1-1.2-3.1-1.7c-1-0.5-1.9-1-2.7-1.4c-1.7-0.9-3-1.8-4-2.8
	c-1.1-1.1-1.9-2.4-2.6-4.2c-0.7-1.8-1.5-5.4-1.9-6S37.4,1,36.6,1c-1.3,0-2.4,1.1-2.4,2.4V54c-3.1-1.4-7.2-1.5-11.3,0.2
	c-6.5,2.7-10.2,8.8-8.2,13.6c2,4.9,8.9,6.6,15.4,4c5-2.1,8.3-6.1,8.7-10.1c0.1-0.2,0.1-0.5,0.1-0.7V19.8c1.2,1.2,2.4,2.1,3.6,2.9
	c1.1,0.7,2.1,1.2,3.1,1.8c1,0.5,1.9,1,2.7,1.4c1.7,0.9,2.8,1.8,3.5,2.6l0.1,0l0,0l0.1,0.1l0.1,0.2l0.1,0.1l0,0c0,0,0-0.1,0-0.1l0,0
	l0,0c0.1,0.2,0.2,0.3,0.3,0.5c0.2,0.4,0.4,0.7,0.6,1.1c0.3,0.8,0.6,1.6,0.9,2.4c0.9,3.4,0.6,7.7-0.7,12.1c1.1-0.6,2-1.4,2.8-2.3
	c0.8-0.9,1.6-1.9,2.2-2.9c1.3-2.1,2.1-4.6,2.3-7.3c0.1-1.3,0-2.7-0.2-4.1C60.2,27.9,60.1,27.2,59.8,26.5z"/>
</svg>
