<?xml version="1.0" encoding="utf-8"?>
<!-- Generator: Adobe Illustrator 16.0.0, SVG Export Plug-In . SVG Version: 6.00 Build 0)  -->
<!DOCTYPE svg PUBLIC "-//W3C//DTD SVG 1.1//EN" "http://www.w3.org/Graphics/SVG/1.1/DTD/svg11.dtd">
<svg version="1.1" id="Layer_1" xmlns="http://www.w3.org/2000/svg" xmlns:xlink="http://www.w3.org/1999/xlink" x="0px" y="0px"
	 width="95.811px" height="209.852px" viewBox="0 0 95.811 209.852" enable-background="new 0 0 95.811 209.852"
	 xml:space="preserve">
<path fill="#DBBE93" d="M40.724,39.997c-0.395-4.601-2.941-7.356-5.815-8.257c4.332,1.488,3.59,13.643-1.597,19.89
	c-4.497,5.417-7.832,6.609-8.531-0.166c-1.064,5.577-2.094,10.337,0.652,15.944c0,0,0.932,12.193-1.997,19.942
	c-2.928,7.749,19.273,5.346,19.273,5.346L40.724,39.997z"/>
<path fill="#EDD1A4" d="M34.104,52.949c5.187-6.247,5.136-19.722,0.806-21.208c-4.262-1.337-9.245,1.41-8.987,8.301
	c0.163,4.356-0.495,8.039-1.141,11.423C25.48,58.239,29.606,58.366,34.104,52.949"/>
<path fill="#EDD1A4" d="M93.861,124.962c-2.754-15.639-6.831-13.249-8.938-25.138c-2.227-12.553-3.369-25.391-5.428-35.925
	c-0.656-3.36-2.301-5.845-4.329-7.29c-5.769-3.698-13.619,7.941-11.119,24.654l-21.705,47.215l-11.097,63.518
	c20.964,24.496,41.374,18.424,48.194,4.045c0.001-0.002,0.001-0.002,0.002-0.004c1.786-4.23,3.218-8.236,5.269-10.654
	C84.71,185.382,101.382,167.687,93.861,124.962"/>
<path fill="#DBBE93" d="M60.107,208.603c-28.609-13.58-12.07-37.824,0.994-42.57c16.644-6.045,17.513-10.283,17.513-10.283
	c-9.569-0.105-15.064-18.787-11.373-29.027c5.024-16.468-1.038-32.417,3.202-31.131c5.025,1.523,9.579-1.796,9.579-1.796
	s-8.229,0.341-9.903-10.847c-2.499-16.713-0.721-30.036,5.047-26.337c-4.817-3.431-11.814-0.951-13.004,9.917l-21.9,10.942
	l-10.819,5.405c0,0-14.043,64.771-16.75,74.526c-2.708,9.758-1.588,14.607,3.92,18.6C27.302,183.751,28.315,216.616,60.107,208.603"
	/>
<path fill="#EDD1A4" d="M67.242,126.723c0.78-2.163,1.077-3.509,1.068-4.294C68.027,123.85,67.681,125.283,67.242,126.723"/>
<path fill="#F4F4F4" d="M50.146,2.935c-4.212-4.455-11.207-4.492-10.932,4.492c0.275,8.983,3.191,142.799,4.381,151.605
	s5.44,7.804,17.29,0.646c7.468-4.512,6.905-6.663,6.104-22.002c-0.641-12.264-3.21-105.014-3.775-112.954
	c-0.564-7.94-1.002-9.246-4.88-13.115C54.318,7.599,50.146,2.935,50.146,2.935"/>
<polygon fill="#4F634E" points="48.888,13.396 52.982,144.522 65.027,138.515 61.256,23.053 "/>
<path fill="#C4C4C4" d="M46.441,159.56c-1.189-8.805-4.105-142.622-4.38-151.605c-0.156-5.062,1.997-7.258,4.658-7.417
	c-3.761-1.537-7.712,0.091-7.505,6.887c0.275,8.984,3.191,142.801,4.381,151.605c0.642,4.748,2.177,6.641,5.31,6.258
	C47.609,164.421,46.847,162.561,46.441,159.56"/>
<path fill="#EDD1A4" d="M4.471,119.707c0,0-2.827-10.384-3.847-20.267c-1.021-9.883,1.608-14.212,14.708-18.879
	c13.1-4.67,17.891-7.943,30.598-4.615c12.092,3.169,21.94,4.142,20.726,13.663c-1.215,9.523-15.026,11.53-31.097,8.756
	c0,0-4.428,4.739-11.573,6.648l-10.533,14.591L4.471,119.707z"/>
<path fill="#DBBE93" d="M23.984,105.013c7.145-1.909,11.352-5.802,11.352-5.802c16.071,2.775,30.105-0.08,31.319-9.602
	c0.08-0.625,0.113-1.217,0.107-1.782c-1.069,10.553-19.472,9.209-30.849,0.994c0,0-7.287,5.07-19.495,8.395
	c-6.418,1.748-5.121,10.84-3.466,22.394l0.499-0.005L23.984,105.013z"/>
<path fill="#FFEFD7" d="M67.159,85.149c-0.032-0.284-0.076-0.542-0.128-0.792c-0.014-0.062-0.028-0.122-0.043-0.182
	c-0.048-0.203-0.104-0.396-0.17-0.576c-0.014-0.036-0.024-0.075-0.039-0.11c-0.083-0.213-0.181-0.411-0.293-0.593
	c-0.013-0.021-0.028-0.041-0.042-0.061c-0.104-0.16-0.223-0.308-0.353-0.444c-0.025-0.026-0.049-0.053-0.075-0.079
	c-0.306-0.302-0.684-0.549-1.144-0.752c-0.026-0.013-0.055-0.023-0.081-0.034c-0.229-0.097-0.475-0.184-0.746-0.262
	c-0.007-0.002-0.014-0.004-0.021-0.007c-1.315-0.375-3.132-0.55-5.641-0.675c-4.308-0.215-5.602-1.003-5.602-1.003
	s-3.529,10.893,4.636,11.913c0.013,0.001,0.023,0.004,0.038,0.006c6.162,0.742,8.764-1.167,9.512-3.692
	C67.217,86.964,67.259,86.054,67.159,85.149"/>
<path fill="#EDD1A4" d="M13.054,161.868c0,0-6.05-0.639-7.32-14.138c-1.271-13.497-1.675-18.279-2.061-26.861
	c-0.387-8.583,0.355-14.82,13.84-16.223c14.961-1.558,20.852-1.951,28.361-2.165c10.46-0.297,9.131,2.271,16.726,6.11
	c9.102,4.6,13.479,9.707,7.268,16.199c-6.211,6.493-20.301,0.854-26.851-2.347c0,0-12.54,4.497-19.042,4.25
	c0,0,1.323,5.382,1.283,11.761C25.217,144.835,30.978,164.593,13.054,161.868"/>
<path fill="#DBBE93" d="M25.257,138.455c0.04-6.379-1.283-11.761-1.283-11.761c6.504,0.246,19.042-4.25,19.042-4.25
	c6.55,3.2,20.639,8.839,26.85,2.346c1.714-1.791,2.497-3.49,2.574-5.084c-2.652,0.149-4.222,2.546-4.222,2.546
	s-5.386,6.382-25.797-5.767c0,0-10.414,2.856-19.216,3.489c-10.148,0.73-7.8,5.36-7.226,14.514
	c0.377,6.028,2.348,19.025,3.65,27.197C29.366,158.94,25.222,143.874,25.257,138.455"/>
<path fill="#FFEFD7" d="M71.295,114.032c0,0-0.349-0.109-0.929-0.305c-1.97-0.669-6.742-2.412-10.742-4.857
	c0,0,0.728,3.769-2.255,8.909c0,0,0.813,1.951,3.32,3.69c0.25,0.172,0.519,0.342,0.802,0.508c0.062,0.037,0.127,0.072,0.189,0.108
	c0.229,0.128,0.471,0.255,0.724,0.378c0.094,0.045,0.189,0.093,0.287,0.138c0.247,0.114,0.506,0.22,0.773,0.324
	c0.106,0.042,0.208,0.085,0.316,0.125c0.377,0.137,0.769,0.267,1.188,0.384C70.91,125.08,75.908,118.597,71.295,114.032"/>
<path fill="#EDD1A4" d="M19.776,175.669c0,0-10.306-3.379-6.777-17.967c3.528-14.588,1.972-23.32,15.274-26.377
	c13.301-3.055,16.155-3.992,26.273-1.186c7.187,1.994,7.425,7.141,13.531,10.456c5.26,2.856,0.499,13.63-9.859,10.757
	c-10.359-2.875-11.799-4.701-11.799-4.701s-4.214,3.501-12.618,4.802C33.801,151.453,31.901,179.032,19.776,175.669"/>
<line fill="#FFEFD7" x1="71.982" y1="145.22" x2="65.416" y2="144.106"/>
<path fill="#DBBE93" d="M33.801,151.453c8.404-1.301,12.618-4.802,12.618-4.802s1.439,1.826,11.799,4.701
	c7.118,1.974,11.134-1.874,11.559-5.828l-3.595,2.134c0,0-5.306,4.626-20.159-5.657c0,0-7.083,5.43-16.237,5.225
	c0,0-3.341,32.244-14.695,24.961c2.13,2.643,4.685,3.482,4.685,3.482C31.901,179.032,33.801,151.453,33.801,151.453"/>
<path fill="#FFEFD7" d="M68.225,140.595c-0.122-0.049-0.233-0.109-0.366-0.146c-2.751-0.763-4.481-1.745-5.354-2.334
	c-0.249-0.137-0.467-0.263-0.658-0.383c0.162,0.686,0.855,4.221-1.327,7.037c0,0,0.764,1.299,2.352,2.409
	c0.984,0.688,2.282,1.304,3.917,1.492C70.926,149.148,71.954,142.097,68.225,140.595"/>
<path fill="#DBBE93" d="M22.568,133.446c-5.749,3.005-4.588,14.204,9.632,13.705L28.1,169.2l-3.604,6.914l-6.124-0.836
	c0,0-8.164-1.334-6.866-12.379s1.953-27.635,10.769-30.553"/>
<path fill="#DBBE93" d="M23.206,119.975c-8.551,1.52-21.345-0.992-17.687-10.097c0,0-3.398,3.664-2.252,13.386
	c1.146,9.723-0.501,34.539,8.679,39.162c9.183,4.623,8.64-1.841,8.64-1.841l-0.918-18.848l-2.48-6.31l6.961-11.998L23.206,119.975z"
	/>
<path fill="#DBBE93" d="M0.673,92.848c-2.065,9.493,7.828,11.366,13.47,5.541c0,0,6.036,4.838,0.399,6.685
	c-5.637,1.847-10.378,4.17-10.827,11.18C3.715,116.253-1.895,101.855,0.673,92.848"/>
<rect x="-451.671" y="-242.636" fill="none" width="872.956" height="792"/>
</svg>
