<?xml version="1.0" encoding="utf-8"?>
<!-- Generator: Adobe Illustrator 16.0.0, SVG Export Plug-In . SVG Version: 6.00 Build 0)  -->
<!DOCTYPE svg PUBLIC "-//W3C//DTD SVG 1.1//EN" "http://www.w3.org/Graphics/SVG/1.1/DTD/svg11.dtd">
<svg version="1.1" id="Layer_1" xmlns="http://www.w3.org/2000/svg" xmlns:xlink="http://www.w3.org/1999/xlink" x="0px" y="0px"
	 width="105.719px" height="15.39px" viewBox="0 0 105.719 15.39" enable-background="new 0 0 105.719 15.39" xml:space="preserve">
<g>
	<g>
		<g>
			<g>
				<g>
					<path d="M0,0.158l1.593,0.001c0.973,0.001,1.633,0.143,1.98,0.427C3.925,0.87,4.1,1.373,4.1,2.095v6.053
						c0,0.721-0.173,1.223-0.521,1.502c-0.353,0.281-1.011,0.42-1.983,0.42H1.235v4.866L0,14.935V0.158z M1.233,1.251l0.002,7.736
						l0.33-0.002c0.491,0.002,0.82-0.1,0.986-0.303C2.717,8.479,2.8,8.019,2.8,7.306l-0.002-4.37c0-0.715-0.083-1.175-0.25-1.378
						C2.386,1.353,2.057,1.252,1.565,1.251H1.233z"/>
				</g>
			</g>
			<g>
				<g>
					<path d="M10.066,3.182v8.746c0,1.269-0.167,2.13-0.495,2.584c-0.332,0.452-0.92,0.681-1.77,0.679
						c-0.835,0.002-1.418-0.229-1.749-0.69c-0.331-0.462-0.495-1.32-0.495-2.576V3.178c0-1.242,0.166-2.092,0.5-2.549
						c0.334-0.456,0.92-0.687,1.762-0.685c0.844,0,1.428,0.229,1.756,0.682C9.901,1.081,10.066,1.933,10.066,3.182z M8.773,2.98
						c0-0.749-0.071-1.261-0.214-1.538C8.419,1.165,8.164,1.026,7.802,1.026C7.445,1.025,7.197,1.161,7.061,1.431
						C6.919,1.702,6.85,2.218,6.85,2.979v9.146c0,0.769,0.072,1.287,0.214,1.555c0.145,0.266,0.395,0.4,0.756,0.399
						c0.358,0.002,0.606-0.133,0.746-0.397c0.139-0.269,0.208-0.785,0.208-1.555V2.98z"/>
				</g>
			</g>
			<g>
				<g>
					<path d="M12.242,0.169h1.312v14.777l-1.312-0.001V0.169z"/>
				</g>
			</g>
			<g>
				<g>
					<path d="M15.741,0.171l1.688,0.001l2.051,13.897h0.021L19.315,0.174l1.119,0.001v14.778l-1.711-0.005L16.692,1.243
						l-0.039,0.001l0.176,13.706l-1.088-0.002V0.171z"/>
				</g>
			</g>
			<g>
				<g>
					<path d="M21.706,0.177l4.206,0.003v1.171h-1.479v13.604h-1.25L23.181,1.349h-1.475V0.177z"/>
				</g>
			</g>
			<g>
				<g>
					<path d="M27.205,0.183h1.233v13.604l2.226,0.001v1.173l-3.459-0.003V0.183z"/>
				</g>
			</g>
			<g>
				<g>
					<path d="M31.859,0.185l3.419,0.002V1.36l-2.186-0.001l0.002,7.123l2.089,0.003v1.161l-2.089-0.002l-0.002,4.146l2.244,0.002
						v1.172l-3.478-0.002V0.185z"/>
				</g>
			</g>
			<g>
				<g>
					<path d="M40.854,2.536v1.412h-1.291V2.575c0-0.58-0.057-0.98-0.174-1.197s-0.325-0.325-0.624-0.326
						c-0.284,0-0.484,0.123-0.603,0.365c-0.116,0.244-0.174,0.676-0.174,1.297v0.721c0,0.301,0.01,0.777,0.061,1.095
						c0.08,0.477,0.231,0.799,0.391,1.112l1.62,3.519c0.306,0.566,0.499,1.028,0.619,1.466c0.126,0.438,0.175,0.76,0.175,1.228v0.1
						c0,1.282-0.155,2.147-0.469,2.595c-0.314,0.447-0.875,0.67-1.677,0.67c-0.783-0.002-1.331-0.182-1.639-0.542
						c-0.307-0.36-0.46-1.042-0.46-2.042v-1.646l1.3,0.002v1.591c0,0.602,0.06,1.01,0.176,1.225c0.116,0.213,0.332,0.32,0.642,0.319
						c0.317,0.001,0.537-0.12,0.654-0.364c0.121-0.244,0.182-0.779,0.182-1.607v-0.12c0-0.38-0.049-0.626-0.096-0.937
						c-0.052-0.352-0.173-0.688-0.302-0.947l-1.711-3.748C37.176,5.863,37,5.446,36.874,5.067c-0.125-0.383-0.158-0.881-0.158-1.162
						V3.044c0-1.148,0.154-1.947,0.46-2.399c0.311-0.45,0.838-0.675,1.59-0.675c0.79,0,1.335,0.178,1.639,0.533
						C40.707,0.856,40.854,1.534,40.854,2.536z"/>
				</g>
			</g>
			<g>
				<g>
					<path d="M46.419,2.541v1.411h-1.291V2.579c0-0.58-0.058-0.979-0.175-1.197c-0.117-0.217-0.325-0.326-0.623-0.326
						c-0.286,0-0.486,0.121-0.604,0.364c-0.113,0.245-0.174,0.677-0.174,1.298v0.721c0,0.301,0.011,0.777,0.062,1.096
						c0.079,0.476,0.231,0.798,0.39,1.111l1.62,3.52c0.307,0.564,0.496,1.026,0.62,1.464c0.123,0.437,0.176,0.762,0.176,1.229v0.1
						c0,1.28-0.158,2.145-0.473,2.594c-0.313,0.447-0.872,0.67-1.677,0.669c-0.783,0-1.327-0.181-1.637-0.542
						c-0.308-0.361-0.459-1.042-0.459-2.043v-1.644l1.299,0.001v1.592c0,0.603,0.059,1.01,0.177,1.223
						c0.115,0.215,0.329,0.321,0.64,0.32c0.317,0.001,0.537-0.12,0.656-0.363c0.119-0.244,0.181-0.779,0.181-1.607v-0.121
						c0-0.38-0.051-0.625-0.096-0.935c-0.054-0.353-0.175-0.688-0.302-0.948l-1.712-3.748c-0.279-0.539-0.453-0.955-0.58-1.336
						s-0.157-0.879-0.157-1.16V3.048c0-1.149,0.151-1.949,0.462-2.4c0.306-0.449,0.836-0.674,1.587-0.674
						c0.79,0,1.334,0.178,1.637,0.533C46.268,0.86,46.419,1.538,46.419,2.541z"/>
				</g>
			</g>
			<g>
				<g>
					<path d="M56.658,2.565v1.413l-1.301-0.002V2.604c0-0.574-0.062-0.972-0.18-1.192c-0.119-0.22-0.334-0.331-0.638-0.331
						c-0.279,0-0.471,0.126-0.583,0.375c-0.11,0.25-0.165,0.776-0.165,1.578v9.146c0,0.82,0.059,1.355,0.175,1.604
						c0.117,0.246,0.331,0.369,0.641,0.369c0.265,0.002,0.459-0.114,0.573-0.348c0.115-0.234,0.177-0.632,0.177-1.193v-1.592h1.301
						v1.645c0,1.008-0.151,1.69-0.455,2.047c-0.305,0.357-0.851,0.535-1.633,0.535c-0.772-0.002-1.31-0.232-1.612-0.693
						c-0.308-0.46-0.459-1.319-0.459-2.574V3.233c0-1.249,0.151-2.102,0.459-2.555c0.303-0.453,0.84-0.68,1.612-0.679
						c0.791,0.001,1.335,0.177,1.637,0.532C56.507,0.886,56.658,1.564,56.658,2.565z"/>
				</g>
			</g>
			<g>
				<g>
					<path d="M62.722,3.241v8.748c0,1.268-0.167,2.129-0.496,2.582c-0.329,0.455-0.919,0.682-1.767,0.68
						c-0.837,0.001-1.419-0.231-1.749-0.692c-0.333-0.461-0.497-1.319-0.497-2.574V3.239c0-1.242,0.167-2.092,0.499-2.551
						c0.335-0.456,0.922-0.686,1.766-0.686c0.84,0.002,1.427,0.23,1.752,0.684C62.558,1.141,62.722,1.993,62.722,3.241z
						 M61.43,3.042c0-0.75-0.07-1.262-0.215-1.539c-0.144-0.277-0.395-0.416-0.759-0.416c-0.354-0.002-0.603,0.135-0.741,0.404
						c-0.141,0.271-0.21,0.787-0.21,1.547l0.002,9.148c0,0.768,0.069,1.285,0.214,1.553c0.142,0.266,0.394,0.399,0.757,0.4
						c0.355,0,0.604-0.133,0.742-0.4c0.14-0.268,0.21-0.784,0.21-1.552V3.042z"/>
				</g>
			</g>
			<g>
				<g>
					<path d="M64.897,0.228l1.885,0.002c0.971,0.002,1.63,0.142,1.974,0.424c0.342,0.279,0.513,0.783,0.513,1.512l0.004,5.152
						c0,0.613-0.115,1.049-0.341,1.301c-0.227,0.254-0.628,0.407-1.205,0.461c0.615,0.041,1.042,0.188,1.283,0.441
						c0.24,0.254,0.357,0.694,0.357,1.322v4.166l-1.312-0.002l0.003-3.715c0-0.692-0.098-1.145-0.289-1.352
						c-0.19-0.208-0.582-0.311-1.181-0.312L66.135,9.63l-0.004,5.377l-1.233-0.003V0.228z M66.131,1.321l0.004,7.205h0.436
						c0.563,0,0.938-0.102,1.128-0.305c0.187-0.203,0.279-0.655,0.279-1.357V3.006c0-0.708-0.094-1.165-0.283-1.373
						c-0.186-0.206-0.562-0.311-1.124-0.311L66.131,1.321z"/>
				</g>
			</g>
			<g>
				<g>
					<path d="M71.523,0.233l1.595,0.002c0.971,0,1.631,0.143,1.982,0.428c0.348,0.283,0.521,0.786,0.521,1.508l0.004,6.053
						c0,0.721-0.176,1.223-0.524,1.502c-0.353,0.28-1.013,0.421-1.98,0.42H72.76l-0.002,4.865h-1.234V0.233z M72.758,1.327
						l0.002,7.736h0.329c0.492,0,0.823-0.102,0.985-0.305c0.167-0.203,0.25-0.663,0.25-1.377l-0.001-4.371
						c0-0.713-0.086-1.174-0.249-1.378c-0.166-0.202-0.495-0.306-0.987-0.306H72.758z"/>
				</g>
			</g>
			<g>
				<g>
					<path d="M74.293,13.391l1.372,0.001l-0.003,1.623l-1.369-0.002V13.391z"/>
				</g>
			</g>
		</g>
	</g>
	<path d="M93.765,13.621c0.07,0.032,0.144,0.065,0.203,0.095c0.052,0.025,0.131,0.054,0.223,0.084
		c-0.003-0.002-0.003-0.003-0.006-0.004C94.105,13.759,93.948,13.694,93.765,13.621z"/>
	<path d="M105.101,9.465c0,0-3.692-1.619-6.606,1.205c-0.096,0.075-0.192,0.147-0.288,0.214c-2.988,1.797-4.847-0.714-5.27-1.153
		c0.756-1.696,0.854-3.245,0.867-3.608l-1.178-0.104v0.128c-0.001,0.028-0.127,2.997-2.274,5.413l0.015,0.009
		c0.29,0.102,0.767,0.275,1.162,0.439c0.127-0.154,0.251-0.309,0.363-0.466c0.163-0.14,0.616-0.431,1.246,0.019
		c0.074,0.054,0.135,0.086,0.182,0.104c3.283,2.191,6.464,0.081,6.464,0.081s2.081-1.414,4.198,0.058l1.737-0.636L105.101,9.465z"/>
	<path d="M94.668,6.144c0.178,0,0.343-0.004,0.5-0.011L94.81,5.448l-0.192-1.265l-0.93-0.879l-0.595-1.134l-1.164-0.529l-0.93-0.879
		L89.726,0.64L88.561,0.11l-1.244,0.297l-1.273-0.122l-1.081,0.687l-1.244,0.297l-0.799,0.999l-1.08,0.685l-0.432,1.205
		l-0.799,0.999l-0.018,1.278L80.159,7.64l0.4,1.216l-0.018,1.279l0.772,1.021l0.398,1.215l1.062,0.713l0.773,1.021l1.235,0.331
		l1.062,0.714l1.276-0.089l1.236,0.33l1.178-0.497l1.276-0.089l0.952-0.854l1.179-0.499l0.152-0.271
		c-0.155-0.292-0.444-0.674-0.986-0.929c-0.097-0.045-0.305-0.129-0.585-0.236c0.128-0.157,0.253-0.314,0.368-0.474
		c0.163-0.14,0.616-0.431,1.246,0.019c0.074,0.054,0.135,0.086,0.182,0.104c0.2,0.134,0.4,0.251,0.601,0.354l0.6-0.538l0.062-0.351
		c-0.875-0.459-1.437-1.182-1.646-1.399c0.756-1.696,0.854-3.245,0.867-3.608C94.08,6.136,94.367,6.144,94.668,6.144z M92.626,6.146
		c-0.001,0.028-0.127,2.997-2.274,5.413l0.047,0.03c-1.522-0.567-3.512-1.287-3.792-1.396c-1.104-0.43-2.046-1.265-2.311-1.527
		C84.071,8.44,83.465,6.31,83.465,6.31l2.465-0.178l0.913-0.556l2.191-0.175c-0.001-0.021-0.007-0.039-0.007-0.061
		c0-0.462,0.375-0.836,0.839-0.836c0.461,0,0.837,0.374,0.837,0.836c0,0.094-0.02,0.183-0.047,0.266
		c0.454,0.141,1.115,0.303,1.97,0.411V6.146z M93.581,4.77c-1.075-2.012-3.192-3.38-5.633-3.386
		c-3.528,0.008-6.384,2.861-6.391,6.39c0.007,3.53,2.862,6.384,6.391,6.39c1.072-0.002,2.081-0.271,2.968-0.737l0.198,0.108
		c-0.938,0.518-2.018,0.814-3.166,0.814c-3.632,0-6.575-2.943-6.575-6.575c0-3.63,2.943-6.573,6.575-6.573
		c2.553,0,4.761,1.459,5.849,3.585L93.581,4.77z"/>
</g>
</svg>
